<svg width="22" height="19" viewBox="0 0 22 19" fill="none" xmlns="http://www.w3.org/2000/svg">
<path d="M21.4769 8.85087L10.4588 0.455324C10.3743 0.391314 10.2663 0.355469 10.1526 0.355469H7.57161C7.35579 0.355469 7.25664 0.591025 7.41995 0.713925L17.6331 8.49754H0.566441C0.43812 8.49754 0.33313 8.58971 0.33313 8.70237V10.2386C0.33313 10.3513 0.43812 10.4434 0.566441 10.4434H17.6302L7.41704 18.2271C7.25372 18.3525 7.35288 18.5855 7.56869 18.5855H10.2372C10.2926 18.5855 10.348 18.5676 10.3888 18.5343L21.4769 10.0901C21.5779 10.013 21.6589 9.91783 21.7143 9.81094C21.7698 9.70405 21.7985 9.58795 21.7985 9.47049C21.7985 9.35303 21.7698 9.23693 21.7143 9.13004C21.6589 9.02315 21.5779 8.92795 21.4769 8.85087Z" fill="white"/>
</svg>