<svg width="32" height="32" viewBox="0 0 32 32" fill="none" xmlns="http://www.w3.org/2000/svg">
<path d="M28.8406 21.9344H10.2313L11.1656 20.0312L26.6906 20.0031C27.2156 20.0031 27.6656 19.6281 27.7594 19.1094L29.9094 7.075C29.9656 6.75937 29.8813 6.43438 29.675 6.1875C29.5731 6.066 29.4459 5.96813 29.3024 5.90068C29.1588 5.83323 29.0023 5.79781 28.8438 5.79688L9.09376 5.73125L8.92501 4.9375C8.81876 4.43125 8.36251 4.0625 7.84376 4.0625H3.01563C2.72306 4.0625 2.44248 4.17872 2.2356 4.3856C2.02873 4.59247 1.91251 4.87306 1.91251 5.16563C1.91251 5.45819 2.02873 5.73878 2.2356 5.94565C2.44248 6.15253 2.72306 6.26875 3.01563 6.26875H6.95001L7.68751 9.775L9.50313 18.5656L7.16563 22.3813C7.04424 22.5451 6.97113 22.7396 6.95456 22.9429C6.93799 23.1461 6.97863 23.3499 7.07188 23.5312C7.25938 23.9031 7.63751 24.1375 8.05626 24.1375H10.0188C9.60038 24.6932 9.37439 25.37 9.37501 26.0656C9.37501 27.8344 10.8125 29.2719 12.5813 29.2719C14.35 29.2719 15.7875 27.8344 15.7875 26.0656C15.7875 25.3687 15.5563 24.6906 15.1438 24.1375H20.1781C19.7598 24.6932 19.5338 25.37 19.5344 26.0656C19.5344 27.8344 20.9719 29.2719 22.7406 29.2719C24.5094 29.2719 25.9469 27.8344 25.9469 26.0656C25.9469 25.3687 25.7156 24.6906 25.3031 24.1375H28.8438C29.45 24.1375 29.9469 23.6437 29.9469 23.0344C29.9451 22.7421 29.8277 22.4624 29.6205 22.2564C29.4132 22.0503 29.1329 21.9345 28.8406 21.9344ZM9.55313 7.90625L27.5469 7.96562L25.7844 17.8344L11.65 17.8594L9.55313 7.90625ZM12.5813 27.0531C12.0375 27.0531 11.5938 26.6094 11.5938 26.0656C11.5938 25.5219 12.0375 25.0781 12.5813 25.0781C13.125 25.0781 13.5688 25.5219 13.5688 26.0656C13.5688 26.3275 13.4647 26.5787 13.2795 26.7639C13.0943 26.9491 12.8432 27.0531 12.5813 27.0531ZM22.7406 27.0531C22.1969 27.0531 21.7531 26.6094 21.7531 26.0656C21.7531 25.5219 22.1969 25.0781 22.7406 25.0781C23.2844 25.0781 23.7281 25.5219 23.7281 26.0656C23.7281 26.3275 23.6241 26.5787 23.4389 26.7639C23.2537 26.9491 23.0025 27.0531 22.7406 27.0531Z" fill="black"/>
</svg>
