<svg width="18" height="18" viewBox="0 0 18 18" fill="none" xmlns="http://www.w3.org/2000/svg">
<path fill-rule="evenodd" clip-rule="evenodd" d="M14.0291 12.6466C14.5192 12.6457 14.9939 12.4749 15.3722 12.1631C15.7504 11.8513 16.0089 11.4179 16.1036 10.9368L17.1664 5.62012C17.2279 5.31197 17.2204 4.99397 17.1445 4.68905C17.0686 4.38413 16.926 4.09986 16.7272 3.85664C16.5283 3.61342 16.278 3.41727 15.9944 3.2824C15.7107 3.14753 15.4006 3.07726 15.0866 3.0766H4.50588V2.01327C4.50588 1.73125 4.3939 1.46081 4.1946 1.26139C3.99529 1.06198 3.725 0.949936 3.44314 0.949936H1.32721C1.04536 0.949936 0.775026 1.06198 0.575723 1.26139C0.37642 1.46081 0.264469 1.73125 0.264469 2.01327C0.264469 2.29528 0.37642 2.56573 0.575723 2.76514C0.775026 2.96455 1.04536 3.0766 1.32721 3.0766H2.38996V13.7099C1.96918 13.708 1.55729 13.8312 1.2065 14.0637C0.85571 14.2962 0.581772 14.6277 0.419431 15.0161C0.25709 15.4045 0.213637 15.8324 0.294566 16.2456C0.375496 16.6587 0.577166 17.0386 0.874036 17.3369C1.17091 17.6353 1.54961 17.8388 1.96218 17.9216C2.37474 18.0045 2.80262 17.963 3.19156 17.8023C3.5805 17.6416 3.91301 17.369 4.14699 17.0191C4.38096 16.6691 4.50588 16.2576 4.50588 15.8366H11.9121C11.9138 16.2551 12.0394 16.6638 12.2731 17.011C12.5067 17.3582 12.8379 17.6284 13.2249 17.7874C13.6119 17.9464 14.0372 17.9872 14.4473 17.9045C14.8574 17.8218 15.2338 17.6194 15.529 17.3228C15.8243 17.0262 16.0251 16.6488 16.106 16.2382C16.187 15.8275 16.1446 15.4021 15.9841 15.0155C15.8237 14.629 15.5523 14.2986 15.2044 14.0663C14.8564 13.8339 14.4475 13.7099 14.0291 13.7099H4.50588V12.6466H14.0291ZM15.0919 5.20326L14.0291 10.5199H4.50588V5.20326H15.0866H15.0919Z" fill="#C85A27"/>
</svg>