<svg width="31" height="31" viewBox="0 0 31 31" fill="none" xmlns="http://www.w3.org/2000/svg">
<circle cx="15.4867" cy="15.8649" r="15.1351" fill="#F9AF5E"/>
<path fill-rule="evenodd" clip-rule="evenodd" d="M22.0764 11.0453C22.3715 11.3404 22.3715 11.8172 22.0764 12.1123L20.6915 13.4972L17.8537 10.6593L19.2386 9.27447C19.3799 9.13277 19.5719 9.05313 19.7721 9.05313C19.9722 9.05313 20.1642 9.13277 20.3056 9.27447L22.0764 11.0453ZM8.67432 22.2983V19.9977C8.67432 19.8918 8.71215 19.801 8.78783 19.7253L17.044 11.4691L19.8819 14.3069L11.6181 22.5631C11.55 22.6388 11.4516 22.6766 11.3532 22.6766H9.05269C8.8408 22.6766 8.67432 22.5101 8.67432 22.2983Z" fill="black"/>
</svg>