<svg width="20" height="20" viewBox="0 0 20 20" fill="none" xmlns="http://www.w3.org/2000/svg">
<path d="M11.1562 9.99999L17.0155 3.01562C17.1137 2.89954 17.0312 2.72321 16.8794 2.72321H15.0981C14.9932 2.72321 14.8928 2.77008 14.8236 2.85044L9.99097 8.6116L5.15838 2.85044C5.09142 2.77008 4.99097 2.72321 4.88383 2.72321H3.10258C2.95079 2.72321 2.8682 2.89954 2.96642 3.01562L8.82579 9.99999L2.96642 16.9844C2.94442 17.0102 2.9303 17.0419 2.92575 17.0755C2.9212 17.1092 2.9264 17.1434 2.94073 17.1742C2.95507 17.205 2.97794 17.231 3.00663 17.2492C3.03532 17.2674 3.06862 17.277 3.10258 17.2768H4.88383C4.98874 17.2768 5.08919 17.2299 5.15838 17.1495L9.99097 11.3884L14.8236 17.1495C14.8905 17.2299 14.991 17.2768 15.0981 17.2768H16.8794C17.0312 17.2768 17.1137 17.1004 17.0155 16.9844L11.1562 9.99999Z" fill="black"/>
</svg>