<svg width="134" height="134" viewBox="0 0 134 134" fill="none" xmlns="http://www.w3.org/2000/svg">
<path fill-rule="evenodd" clip-rule="evenodd" d="M0 66.8267C0 49.1031 7.04065 32.1055 19.5731 19.5731C32.1055 7.04065 49.1031 0 66.8267 0C84.5502 0 101.548 7.04065 114.08 19.5731C126.613 32.1055 133.653 49.1031 133.653 66.8267C133.653 84.5502 126.613 101.548 114.08 114.08C101.548 126.613 84.5502 133.653 66.8267 133.653C49.1031 133.653 32.1055 126.613 19.5731 114.08C7.04065 101.548 0 84.5502 0 66.8267ZM66.8267 9.58559C55.7318 9.58597 44.8761 12.8107 35.5803 18.8675C26.2845 24.9243 18.9492 33.5521 14.4669 43.7012C9.98452 53.8504 8.54829 65.0835 10.3329 76.0339C12.1175 86.9843 17.046 97.1801 24.5189 105.381C29.0557 98.2749 35.3104 92.4271 42.7051 88.3779C50.0998 84.3287 58.3959 82.2088 66.8267 82.2141C75.2576 82.2079 83.554 84.3274 90.9489 88.3766C98.3437 92.4259 104.598 98.2742 109.134 105.381C116.607 97.1801 121.536 86.9843 123.32 76.0339C125.105 65.0835 123.669 53.8504 119.186 43.7012C114.704 33.5521 107.369 24.9243 98.0731 18.8675C88.7772 12.8107 77.9216 9.58597 66.8267 9.58559ZM101.96 112.02C98.3898 105.866 93.2646 100.759 87.0983 97.2103C80.932 93.6614 73.9413 91.7955 66.8267 91.7996C59.7121 91.7955 52.7213 93.6614 46.5551 97.2103C40.3888 100.759 35.2635 105.866 31.693 112.02C41.7302 119.847 54.0987 124.088 66.8267 124.068C80.0649 124.068 92.2537 119.568 101.96 112.02ZM43.115 56.787C43.115 50.4983 45.6131 44.4671 50.06 40.0203C54.5068 35.5735 60.5379 33.0753 66.8267 33.0753C73.1154 33.0753 79.1466 35.5735 83.5934 40.0203C88.0402 44.4671 90.5384 50.4983 90.5384 56.787C90.5384 63.0758 88.0402 69.1069 83.5934 73.5537C79.1466 78.0005 73.1154 80.4987 66.8267 80.4987C60.5379 80.4987 54.5068 78.0005 50.06 73.5537C45.6131 69.1069 43.115 63.0758 43.115 56.787ZM66.8267 42.6609C64.9716 42.6609 63.1347 43.0263 61.4208 43.7362C59.707 44.4461 58.1497 45.4866 56.838 46.7983C55.5263 48.1101 54.4857 49.6673 53.7758 51.3812C53.0659 53.0951 52.7005 54.932 52.7005 56.787C52.7005 58.6421 53.0659 60.479 53.7758 62.1929C54.4857 63.9067 55.5263 65.464 56.838 66.7757C58.1497 68.0874 59.707 69.128 61.4208 69.8379C63.1347 70.5478 64.9716 70.9132 66.8267 70.9132C70.5732 70.9132 74.1662 69.4249 76.8153 66.7757C79.4645 64.1265 80.9528 60.5335 80.9528 56.787C80.9528 53.0405 79.4645 49.4475 76.8153 46.7983C74.1662 44.1492 70.5732 42.6609 66.8267 42.6609Z" fill="#999999"/>
</svg>