<svg width="24" height="25" viewBox="0 0 24 25" fill="none" xmlns="http://www.w3.org/2000/svg">
<path d="M23.841 11.668C21.2317 4.31706 17.2875 0.617676 12 0.617676C6.70978 0.617676 2.76827 4.31706 0.158941 11.6717C0.0542802 11.968 0 12.2917 0 12.6195C0 12.9473 0.0542802 13.271 0.158941 13.5674C2.76827 20.9183 6.71253 24.6177 12 24.6177C17.2902 24.6177 21.2317 20.9183 23.841 13.5637C24.053 12.9674 24.053 12.2753 23.841 11.668ZM12 21.9674C7.56029 21.9674 4.30964 18.9563 2.01685 12.6177C4.30964 6.27903 7.56029 3.26798 12 3.26798C16.4397 3.26798 19.6903 6.27903 21.9831 12.6177C19.6931 18.9563 16.4425 21.9674 12 21.9674ZM11.8899 6.13915C9.21451 6.13915 7.04558 9.03976 7.04558 12.6177C7.04558 16.1956 9.21451 19.0962 11.8899 19.0962C14.5653 19.0962 16.7342 16.1956 16.7342 12.6177C16.7342 9.03976 14.5653 6.13915 11.8899 6.13915ZM11.8899 16.7404C10.1861 16.7404 8.80715 14.8962 8.80715 12.6177C8.80715 10.3391 10.1861 8.49498 11.8899 8.49498C13.5937 8.49498 14.9726 10.3391 14.9726 12.6177C14.9726 14.8962 13.5937 16.7404 11.8899 16.7404Z" fill="black" fill-opacity="0.5"/>
</svg>