<svg width="248" height="187" viewBox="0 0 248 187" fill="none" xmlns="http://www.w3.org/2000/svg">
<rect x="83" y="182" width="92.3404" height="4.60084" rx="2.30042" fill="#C85A27"/>
<path d="M3.54004 22.0156H6.66504L18.7744 35.9316L30.835 22.0156H33.96V56H29.0771V30.1211L27.6367 32.0742L18.7744 42.4014L9.91211 32.0986L8.42285 30.1455V56H3.54004V22.0156ZM41.3086 22.0156H46.1914V56H41.3086V22.0156ZM61.8408 38.7881L51.0986 22.0156H56.543L64.5752 35.0283L72.7783 22.0156H77.9053L66.9678 38.4707L78.8574 56H73.4375L64.3066 42.084L55.835 56H50.4883L61.8408 38.7881Z" fill="black"/>
<path d="M3.54004 22.0156V21.0156H2.54004V22.0156H3.54004ZM6.66504 22.0156L7.41942 21.3592L7.12046 21.0156H6.66504V22.0156ZM18.7744 35.9316L18.02 36.5881L18.7759 37.4568L19.5301 36.5866L18.7744 35.9316ZM30.835 22.0156V21.0156H30.3783L30.0793 21.3607L30.835 22.0156ZM33.96 22.0156H34.96V21.0156H33.96V22.0156ZM33.96 56V57H34.96V56H33.96ZM29.0771 56H28.0771V57H29.0771V56ZM29.0771 30.1211H30.0771V27.0804L28.2723 29.5276L29.0771 30.1211ZM27.6367 32.0742L28.3956 32.7255L28.4196 32.6975L28.4415 32.6678L27.6367 32.0742ZM18.7744 42.4014L18.0163 43.0535L18.7753 43.9359L19.5333 43.0526L18.7744 42.4014ZM9.91211 32.0986L9.11691 32.705L9.13478 32.7284L9.154 32.7508L9.91211 32.0986ZM8.42285 30.1455L9.21805 29.5392L7.42285 27.1848V30.1455H8.42285ZM8.42285 56V57H9.42285V56H8.42285ZM3.54004 56H2.54004V57H3.54004V56ZM3.54004 23.0156H6.66504V21.0156H3.54004V23.0156ZM5.91066 22.6721L18.02 36.5881L19.5288 35.2752L7.41942 21.3592L5.91066 22.6721ZM19.5301 36.5866L31.5907 22.6706L30.0793 21.3607L18.0187 35.2767L19.5301 36.5866ZM30.835 23.0156H33.96V21.0156H30.835V23.0156ZM32.96 22.0156V56H34.96V22.0156H32.96ZM33.96 55H29.0771V57H33.96V55ZM30.0771 56V30.1211H28.0771V56H30.0771ZM28.2723 29.5276L26.8319 31.4807L28.4415 32.6678L29.882 30.7146L28.2723 29.5276ZM26.8778 31.423L18.0155 41.7501L19.5333 43.0526L28.3956 32.7255L26.8778 31.423ZM19.5325 41.7492L10.6702 31.4465L9.154 32.7508L18.0163 43.0535L19.5325 41.7492ZM10.7073 31.4923L9.21805 29.5392L7.62765 30.7519L9.11691 32.705L10.7073 31.4923ZM7.42285 30.1455V56H9.42285V30.1455H7.42285ZM8.42285 55H3.54004V57H8.42285V55ZM4.54004 56V22.0156H2.54004V56H4.54004ZM41.3086 22.0156V21.0156H40.3086V22.0156H41.3086ZM46.1914 22.0156H47.1914V21.0156H46.1914V22.0156ZM46.1914 56V57H47.1914V56H46.1914ZM41.3086 56H40.3086V57H41.3086V56ZM41.3086 23.0156H46.1914V21.0156H41.3086V23.0156ZM45.1914 22.0156V56H47.1914V22.0156H45.1914ZM46.1914 55H41.3086V57H46.1914V55ZM42.3086 56V22.0156H40.3086V56H42.3086ZM61.8408 38.7881L62.6756 39.3387L63.0335 38.7961L62.6829 38.2488L61.8408 38.7881ZM51.0986 22.0156V21.0156H49.2706L50.2565 22.555L51.0986 22.0156ZM56.543 22.0156L57.3939 21.4904L57.1009 21.0156H56.543V22.0156ZM64.5752 35.0283L63.7243 35.5536L64.5663 36.9177L65.4211 35.5616L64.5752 35.0283ZM72.7783 22.0156V21.0156H72.2266L71.9324 21.4823L72.7783 22.0156ZM77.9053 22.0156L78.7381 22.5692L79.7707 21.0156H77.9053V22.0156ZM66.9678 38.4707L66.135 37.9171L65.7633 38.4763L66.1402 39.032L66.9678 38.4707ZM78.8574 56V57H80.744L79.685 55.4387L78.8574 56ZM73.4375 56L72.6014 56.5486L72.8976 57H73.4375V56ZM64.3066 42.084L65.1427 41.5354L64.275 40.2129L63.4525 41.564L64.3066 42.084ZM55.835 56V57H56.3969L56.6891 56.52L55.835 56ZM50.4883 56L49.6535 55.4494L48.6308 57H50.4883V56ZM62.6829 38.2488L51.9407 21.4763L50.2565 22.555L60.9987 39.3274L62.6829 38.2488ZM51.0986 23.0156H56.543V21.0156H51.0986V23.0156ZM55.692 22.5409L63.7243 35.5536L65.4261 34.5031L57.3939 21.4904L55.692 22.5409ZM65.4211 35.5616L73.6243 22.5489L71.9324 21.4823L63.7293 34.495L65.4211 35.5616ZM72.7783 23.0156H77.9053V21.0156H72.7783V23.0156ZM77.0725 21.4621L66.135 37.9171L67.8006 39.0243L78.7381 22.5692L77.0725 21.4621ZM66.1402 39.032L78.0298 56.5613L79.685 55.4387L67.7954 37.9094L66.1402 39.032ZM78.8574 55H73.4375V57H78.8574V55ZM74.2736 55.4514L65.1427 41.5354L63.4706 42.6326L72.6014 56.5486L74.2736 55.4514ZM63.4525 41.564L54.9808 55.48L56.6891 56.52L65.1608 42.604L63.4525 41.564ZM55.835 55H50.4883V57H55.835V55ZM51.3231 56.5506L62.6756 39.3387L61.006 38.2375L49.6535 55.4494L51.3231 56.5506Z" fill="black"/>
<path d="M86.1416 134.016H89.2666L101.376 147.932L113.437 134.016H116.562V168H111.679V142.121L110.238 144.074L101.376 154.401L92.5137 144.099L91.0244 142.146V168H86.1416V134.016ZM135.092 134.016H138.437L152.768 168H147.689L144.247 159.455H129.159L125.741 168H120.761L135.092 134.016ZM142.685 155.549L136.728 140.656L130.746 155.549H142.685ZM165.536 138.312H155.307V134.016H180.648V138.312H170.419V168H165.536V138.312ZM209.506 167.805C207.895 168.098 205.722 168.244 202.987 168.244C200.269 168.244 197.812 167.87 195.614 167.121C193.433 166.372 191.553 165.266 189.975 163.801C186.589 160.66 184.896 156.281 184.896 150.666C184.896 147.004 185.767 143.83 187.509 141.145C189.869 137.515 193.49 135.204 198.373 134.211C199.87 133.918 201.653 133.771 203.72 133.771C205.803 133.771 207.471 133.885 208.725 134.113V138.776C207.585 138.418 205.819 138.239 203.427 138.239C201.05 138.239 199.032 138.532 197.372 139.118C195.712 139.704 194.337 140.542 193.246 141.633C191.065 143.765 189.975 146.776 189.975 150.666C189.975 154.589 191.049 157.697 193.197 159.992C195.525 162.466 198.869 163.703 203.231 163.703C205.787 163.703 207.878 163.508 209.506 163.117V167.805ZM215.609 134.016H220.492V147.443H236.557V134.016H241.439V168H236.557V151.74H220.492V168H215.609V134.016Z" fill="black"/>
<path d="M86.1416 134.016V133.016H85.1416V134.016H86.1416ZM89.2666 134.016L90.021 133.359L89.722 133.016H89.2666V134.016ZM101.376 147.932L100.622 148.588L101.378 149.457L102.132 148.587L101.376 147.932ZM113.437 134.016V133.016H112.98L112.681 133.361L113.437 134.016ZM116.562 134.016H117.562V133.016H116.562V134.016ZM116.562 168V169H117.562V168H116.562ZM111.679 168H110.679V169H111.679V168ZM111.679 142.121H112.679V139.08L110.874 141.528L111.679 142.121ZM110.238 144.074L110.997 144.725L111.021 144.697L111.043 144.668L110.238 144.074ZM101.376 154.401L100.618 155.053L101.377 155.936L102.135 155.053L101.376 154.401ZM92.5137 144.099L91.7185 144.705L91.7363 144.728L91.7556 144.751L92.5137 144.099ZM91.0244 142.146L91.8196 141.539L90.0244 139.185V142.146H91.0244ZM91.0244 168V169H92.0244V168H91.0244ZM86.1416 168H85.1416V169H86.1416V168ZM86.1416 135.016H89.2666V133.016H86.1416V135.016ZM88.5122 134.672L100.622 148.588L102.13 147.275L90.021 133.359L88.5122 134.672ZM102.132 148.587L114.192 134.671L112.681 133.361L100.62 147.277L102.132 148.587ZM113.437 135.016H116.562V133.016H113.437V135.016ZM115.562 134.016V168H117.562V134.016H115.562ZM116.562 167H111.679V169H116.562V167ZM112.679 168V142.121H110.679V168H112.679ZM110.874 141.528L109.433 143.481L111.043 144.668L112.484 142.715L110.874 141.528ZM109.479 143.423L100.617 153.75L102.135 155.053L110.997 144.725L109.479 143.423ZM102.134 153.749L93.2718 143.447L91.7556 144.751L100.618 155.053L102.134 153.749ZM93.3089 143.492L91.8196 141.539L90.2292 142.752L91.7185 144.705L93.3089 143.492ZM90.0244 142.146V168H92.0244V142.146H90.0244ZM91.0244 167H86.1416V169H91.0244V167ZM87.1416 168V134.016H85.1416V168H87.1416ZM135.092 134.016V133.016H134.428L134.17 133.627L135.092 134.016ZM138.437 134.016L139.358 133.627L139.1 133.016H138.437V134.016ZM152.768 168V169H154.275L153.689 167.611L152.768 168ZM147.689 168L146.762 168.374L147.014 169H147.689V168ZM144.247 159.455L145.175 159.081L144.922 158.455H144.247V159.455ZM129.159 159.455V158.455H128.482L128.231 159.084L129.159 159.455ZM125.741 168V169H126.418L126.67 168.371L125.741 168ZM120.761 168L119.839 167.611L119.254 169H120.761V168ZM142.685 155.549V156.549H144.162L143.613 155.177L142.685 155.549ZM136.728 140.656L137.656 140.285L136.729 137.968L135.8 140.284L136.728 140.656ZM130.746 155.549L129.818 155.176L129.267 156.549H130.746V155.549ZM135.092 135.016H138.437V133.016H135.092V135.016ZM137.515 134.404L151.846 168.389L153.689 167.611L139.358 133.627L137.515 134.404ZM152.768 167H147.689V169H152.768V167ZM148.617 167.626L145.175 159.081L143.32 159.829L146.762 168.374L148.617 167.626ZM144.247 158.455H129.159V160.455H144.247V158.455ZM128.231 159.084L124.813 167.629L126.67 168.371L130.088 159.826L128.231 159.084ZM125.741 167H120.761V169H125.741V167ZM121.682 168.389L136.013 134.404L134.17 133.627L119.839 167.611L121.682 168.389ZM143.613 155.177L137.656 140.285L135.799 141.028L141.756 155.92L143.613 155.177ZM135.8 140.284L129.818 155.176L131.674 155.922L137.655 141.029L135.8 140.284ZM130.746 156.549H142.685V154.549H130.746V156.549ZM165.536 138.312H166.536V137.312H165.536V138.312ZM155.307 138.312H154.307V139.312H155.307V138.312ZM155.307 134.016V133.016H154.307V134.016H155.307ZM180.648 134.016H181.648V133.016H180.648V134.016ZM180.648 138.312V139.312H181.648V138.312H180.648ZM170.419 138.312V137.312H169.419V138.312H170.419ZM170.419 168V169H171.419V168H170.419ZM165.536 168H164.536V169H165.536V168ZM165.536 137.312H155.307V139.312H165.536V137.312ZM156.307 138.312V134.016H154.307V138.312H156.307ZM155.307 135.016H180.648V133.016H155.307V135.016ZM179.648 134.016V138.312H181.648V134.016H179.648ZM180.648 137.312H170.419V139.312H180.648V137.312ZM169.419 138.312V168H171.419V138.312H169.419ZM170.419 167H165.536V169H170.419V167ZM166.536 168V138.312H164.536V168H166.536ZM209.506 167.805L209.685 168.789L210.506 168.639V167.805H209.506ZM195.614 167.121L195.29 168.067L195.292 168.068L195.614 167.121ZM189.975 163.801L189.294 164.534L189.294 164.534L189.975 163.801ZM187.509 141.145L186.67 140.599L186.67 140.6L187.509 141.145ZM198.373 134.211L198.181 133.23L198.174 133.231L198.373 134.211ZM208.725 134.113H209.725V133.279L208.903 133.129L208.725 134.113ZM208.725 138.776L208.425 139.73L209.725 140.139V138.776H208.725ZM193.246 141.633L193.945 142.348L193.953 142.34L193.246 141.633ZM193.197 159.992L192.467 160.676L192.469 160.677L193.197 159.992ZM209.506 163.117H210.506V161.849L209.272 162.145L209.506 163.117ZM209.327 166.821C207.801 167.098 205.696 167.244 202.987 167.244V169.244C205.748 169.244 207.988 169.097 209.685 168.789L209.327 166.821ZM202.987 167.244C200.361 167.244 198.014 166.882 195.937 166.175L195.292 168.068C197.609 168.857 200.178 169.244 202.987 169.244V167.244ZM195.939 166.175C193.881 165.469 192.124 164.431 190.655 163.068L189.294 164.534C190.983 166.1 192.986 167.276 195.29 168.067L195.939 166.175ZM190.655 163.068C187.516 160.156 185.896 156.068 185.896 150.666H183.896C183.896 156.495 185.662 161.163 189.294 164.534L190.655 163.068ZM185.896 150.666C185.896 147.168 186.726 144.19 188.348 141.689L186.67 140.6C184.809 143.47 183.896 146.839 183.896 150.666H185.896ZM188.347 141.69C190.539 138.319 193.909 136.139 198.572 135.191L198.174 133.231C193.071 134.268 189.199 136.711 186.67 140.599L188.347 141.69ZM198.565 135.192C199.981 134.915 201.696 134.771 203.72 134.771V132.771C201.609 132.771 199.759 132.921 198.181 133.23L198.565 135.192ZM203.72 134.771C205.776 134.771 207.377 134.885 208.546 135.097L208.903 133.129C207.566 132.886 205.83 132.771 203.72 132.771V134.771ZM207.725 134.113V138.776H209.725V134.113H207.725ZM209.024 137.822C207.733 137.417 205.84 137.239 203.427 137.239V139.239C205.798 139.239 207.437 139.42 208.425 139.73L209.024 137.822ZM203.427 137.239C200.974 137.239 198.836 137.541 197.039 138.175L197.705 140.061C199.228 139.524 201.127 139.239 203.427 139.239V137.239ZM197.039 138.175C195.258 138.804 193.749 139.716 192.539 140.926L193.953 142.34C194.924 141.369 196.166 140.604 197.705 140.061L197.039 138.175ZM192.547 140.918C190.124 143.286 188.975 146.585 188.975 150.666H190.975C190.975 146.967 192.006 144.244 193.945 142.348L192.547 140.918ZM188.975 150.666C188.975 154.777 190.105 158.152 192.467 160.676L193.927 159.309C191.993 157.242 190.975 154.401 190.975 150.666H188.975ZM192.469 160.677C195.036 163.406 198.676 164.703 203.231 164.703V162.703C199.062 162.703 196.014 161.527 193.926 159.307L192.469 160.677ZM203.231 164.703C205.829 164.703 208.006 164.505 209.739 164.09L209.272 162.145C207.75 162.51 205.745 162.703 203.231 162.703V164.703ZM208.506 163.117V167.805H210.506V163.117H208.506ZM215.609 134.016V133.016H214.609V134.016H215.609ZM220.492 134.016H221.492V133.016H220.492V134.016ZM220.492 147.443H219.492V148.443H220.492V147.443ZM236.557 147.443V148.443H237.557V147.443H236.557ZM236.557 134.016V133.016H235.557V134.016H236.557ZM241.439 134.016H242.439V133.016H241.439V134.016ZM241.439 168V169H242.439V168H241.439ZM236.557 168H235.557V169H236.557V168ZM236.557 151.74H237.557V150.74H236.557V151.74ZM220.492 151.74V150.74H219.492V151.74H220.492ZM220.492 168V169H221.492V168H220.492ZM215.609 168H214.609V169H215.609V168ZM215.609 135.016H220.492V133.016H215.609V135.016ZM219.492 134.016V147.443H221.492V134.016H219.492ZM220.492 148.443H236.557V146.443H220.492V148.443ZM237.557 147.443V134.016H235.557V147.443H237.557ZM236.557 135.016H241.439V133.016H236.557V135.016ZM240.439 134.016V168H242.439V134.016H240.439ZM241.439 167H236.557V169H241.439V167ZM237.557 168V151.74H235.557V168H237.557ZM236.557 150.74H220.492V152.74H236.557V150.74ZM219.492 151.74V168H221.492V151.74H219.492ZM220.492 167H215.609V169H220.492V167ZM216.609 168V134.016H214.609V168H216.609Z" fill="black"/>
<circle cx="84" cy="92" r="26" fill="#C85A27"/>
<path d="M75.6191 84.0488C75.6191 87.2227 77.9466 88.8096 82.6016 88.8096H97.543V92.96H94.5156V109H90.292L90.1211 105.899C88.3796 107.478 86.0846 108.552 83.2363 109.122C82.3249 109.301 81.2507 109.391 80.0137 109.391C78.793 109.391 77.5072 109.195 76.1562 108.805C74.8216 108.398 73.666 107.779 72.6895 106.949C70.6549 105.224 69.6377 102.734 69.6377 99.4785C69.6377 97.0859 70.7201 94.9538 72.8848 93.082C73.7311 92.3496 74.8053 91.7148 76.1074 91.1777V91.1045C74.3984 90.4209 73.0638 89.4606 72.1035 88.2236C71.1595 86.9867 70.6875 85.7171 70.6875 84.415C70.6875 83.113 70.891 81.9248 71.2979 80.8506C71.721 79.7764 72.4453 78.8079 73.4707 77.9453C75.8145 75.9922 79.3952 75.0156 84.2129 75.0156C86.9798 75.0156 89.2259 75.1051 90.9512 75.2842V79.6787C88.9655 79.3044 86.9798 79.1172 84.9941 79.1172C83.0247 79.1172 81.4948 79.2393 80.4043 79.4834C79.3301 79.7113 78.4349 80.0449 77.7188 80.4844C76.319 81.3307 75.6191 82.5189 75.6191 84.0488ZM81.4297 105.484C84.929 105.484 87.7285 104.451 89.8281 102.384V92.9355L82.5771 92.96C80.0218 92.96 78.0117 93.6517 76.5469 95.0352C75.2285 96.2721 74.5693 97.7777 74.5693 99.5518C74.5693 102.498 75.904 104.353 78.5732 105.118C79.4196 105.362 80.3717 105.484 81.4297 105.484Z" fill="white"/>
</svg>