<svg width="40" height="58" viewBox="0 0 40 58" fill="none" xmlns="http://www.w3.org/2000/svg">
<path d="M20 12.8571C21.8944 12.8571 23.7112 13.6097 25.0508 14.9492C26.3903 16.2888 27.1429 18.1056 27.1429 20C27.1429 20.938 26.9581 21.8668 26.5991 22.7335C26.2402 23.6001 25.714 24.3875 25.0508 25.0508C24.3875 25.714 23.6001 26.2402 22.7335 26.5991C21.8668 26.9581 20.938 27.1429 20 27.1429C18.1056 27.1429 16.2888 26.3903 14.9492 25.0508C13.6097 23.7112 12.8571 21.8944 12.8571 20C12.8571 18.1056 13.6097 16.2888 14.9492 14.9492C16.2888 13.6097 18.1056 12.8571 20 12.8571ZM20 0C25.3043 0 30.3914 2.10714 34.1421 5.85786C37.8929 9.60859 40 14.6957 40 20C40 35 20 57.1429 20 57.1429C20 57.1429 0 35 0 20C0 14.6957 2.10714 9.60859 5.85786 5.85786C9.60859 2.10714 14.6957 0 20 0ZM20 5.71429C16.2112 5.71429 12.5776 7.21938 9.89847 9.89847C7.21938 12.5776 5.71429 16.2112 5.71429 20C5.71429 22.8571 5.71429 28.5714 20 47.7429C34.2857 28.5714 34.2857 22.8571 34.2857 20C34.2857 16.2112 32.7806 12.5776 30.1015 9.89847C27.4224 7.21938 23.7888 5.71429 20 5.71429Z" fill="black"/>
</svg>