<svg width="44" height="42" viewBox="0 0 44 42" fill="none" xmlns="http://www.w3.org/2000/svg">
<path d="M21.9661 37.9389H5.99321C4.93415 37.9389 3.91846 37.5182 3.16958 36.7693C2.42071 36.0205 2 35.0048 2 33.9457V5.99321C2 4.93415 2.42071 3.91846 3.16958 3.16958C3.91846 2.42071 4.93415 2 5.99321 2H37.9389C38.998 2 40.0137 2.42071 40.7625 3.16958C41.5114 3.91846 41.9321 4.93415 41.9321 5.99321V21.9661" stroke="black" stroke-width="2.5" stroke-linecap="round"/>
<path d="M2 9.98618H41.9321M7.98982 6.01293L8.00978 5.99097M13.9796 6.01293L13.9996 5.99097M19.9695 6.01293L19.9894 5.99097M39.9355 28.0555C39.2931 27.4 38.5279 26.8774 37.6836 26.5176C36.8393 26.1579 35.9323 25.9679 35.0146 25.9587C34.0969 25.9494 33.1863 26.121 32.3348 26.4636C31.4834 26.8063 30.7078 27.3132 30.0523 27.9556C29.3968 28.598 28.8743 29.3632 28.5145 30.2076C28.1547 31.0519 27.9648 31.9588 27.9555 32.8766C27.9368 34.73 28.6551 36.515 29.9525 37.8388M39.9315 28.0555C40.5892 28.7074 41.1108 29.4836 41.4659 30.3389C41.821 31.1942 42.0025 32.1116 42 33.0377C41.9974 33.9638 41.8108 34.8801 41.451 35.7335C41.0912 36.5868 40.5654 37.3601 39.9041 38.0084C39.2428 38.6568 38.4592 39.1672 37.5989 39.51C36.7386 39.8529 35.8187 40.0213 34.8928 40.0055C33.9668 39.9897 33.0532 39.7901 32.2051 39.4181C31.357 39.0461 30.5913 38.5093 29.9525 37.8388M39.9355 28.0555L29.9525 37.8388" stroke="black" stroke-width="2.5" stroke-linecap="round" stroke-linejoin="round"/>
</svg>