<svg width="40" height="28" viewBox="0 0 40 28" fill="none" xmlns="http://www.w3.org/2000/svg">
<path d="M39.0508 23.5254L21.6949 10.5085L26.0339 7.25424C26.1602 7.15951 26.2627 7.03668 26.3333 6.89547C26.4039 6.75426 26.4407 6.59855 26.4407 6.44068C26.4407 4.7325 25.7621 3.09429 24.5542 1.88643C23.3464 0.67857 21.7082 0 20 0C18.2918 0 16.6536 0.67857 15.4458 1.88643C14.2379 3.09429 13.5593 4.7325 13.5593 6.44068C13.5593 6.71039 13.6665 6.96905 13.8572 7.15977C14.0479 7.35048 14.3066 7.45763 14.5763 7.45763C14.846 7.45763 15.1046 7.35048 15.2954 7.15977C15.4861 6.96905 15.5932 6.71039 15.5932 6.44068C15.6063 5.32356 16.0432 4.2531 16.8155 3.44585C17.5878 2.63861 18.6379 2.15483 19.7534 2.09238C20.8688 2.02993 21.9664 2.39348 22.824 3.10947C23.6816 3.82547 24.2352 4.84047 24.3729 5.94915L19.4068 9.67797L19.3729 9.71187L0.949153 23.5254C0.550732 23.8242 0.256429 24.2408 0.107934 24.7162C-0.0405613 25.1916 -0.0357213 25.7016 0.121768 26.1741C0.279258 26.6466 0.581413 27.0575 0.985433 27.3487C1.38945 27.6399 1.87486 27.7966 2.37288 27.7966H37.6271C38.1251 27.7966 38.6105 27.6399 39.0146 27.3487C39.4186 27.0575 39.7207 26.6466 39.8782 26.1741C40.0357 25.7016 40.0406 25.1916 39.8921 24.7162C39.7436 24.2408 39.4493 23.8242 39.0508 23.5254ZM37.9492 25.5254C37.9331 25.5971 37.8916 25.6606 37.8325 25.7042C37.7733 25.7478 37.7004 25.7686 37.6271 25.7627H2.37288C2.29962 25.7686 2.22671 25.7478 2.16755 25.7042C2.10838 25.6606 2.06694 25.5971 2.05085 25.5254C2.02378 25.4592 2.02083 25.3856 2.04252 25.3175C2.0642 25.2493 2.10914 25.1909 2.16949 25.1525L20 11.7797L37.8305 25.1525C37.8909 25.1909 37.9358 25.2493 37.9575 25.3175C37.9792 25.3856 37.9762 25.4592 37.9492 25.5254Z" fill="black"/>
</svg>