<svg width="24" height="21" viewBox="0 0 24 21" fill="none" xmlns="http://www.w3.org/2000/svg">
<path d="M9.34948 6.23979L9.35198 6.24064C9.40398 6.0526 9.59298 5.91421 9.82948 5.91421H16.5655C16.574 5.91421 16.5825 5.91124 16.591 5.91167C16.4475 3.88305 14.443 2.94281 12.6745 2.94281H5.93848C5.70148 2.94281 5.51248 3.08501 5.46098 3.27264L5.45848 3.27179L2.51398 14.749L2.52048 14.7495C2.51348 14.7766 2.50098 14.8025 2.50098 14.8318C2.50098 15.0666 2.72448 15.2525 3.00098 15.2525H7.03648L9.34948 6.23979Z" fill="#1565C0"/>
<path d="M16.5921 5.91156C16.6186 6.28341 16.5896 6.68795 16.4776 7.13493C15.8371 9.67972 13.5216 11.0041 10.6601 11.0041C10.6601 11.0041 8.92506 11.0041 8.50356 11.0041C8.24305 11.0041 8.12005 11.134 8.06355 11.2333L7.19355 14.65L7.04105 15.2566H7.03805L6.40655 17.7169L6.41305 17.7174C6.40605 17.7445 6.39355 17.7704 6.39355 17.7997C6.39355 18.0345 6.61705 18.2242 6.89355 18.2242H10.5601L10.5666 18.22C10.8026 18.217 10.9901 18.0739 11.0391 17.8855L11.0481 17.8791L11.9541 14.3066C11.9541 14.3066 12.0171 13.9658 12.4391 13.9658C12.8611 13.9658 14.5281 13.9658 14.5281 13.9658C17.3896 13.9658 19.7286 12.6473 20.3696 10.1021C21.0906 7.23256 18.6796 5.92217 16.5921 5.91156Z" fill="#039BE5"/>
<path d="M9.83 5.91402C9.593 5.91402 9.404 6.0524 9.3525 6.24045L9.35 6.2396L8.0625 11.2337C8.119 11.1343 8.242 11.0045 8.5025 11.0045C8.9245 11.0045 10.62 11.0045 10.62 11.0045C13.4815 11.0045 15.836 9.68006 16.4765 7.13526C16.589 6.68828 16.6175 6.28375 16.591 5.9119C16.583 5.91105 16.574 5.91402 16.566 5.91402H9.83Z" fill="#283593"/>
</svg>