<svg width="9" height="10" viewBox="0 0 9 10" fill="none" xmlns="http://www.w3.org/2000/svg">
<path d="M7.78388 3.95653H1.31911C0.742816 3.95653 0.275635 4.42371 0.275635 5.00001C0.275635 5.5763 0.742815 6.04348 1.31911 6.04348H7.78388C8.36018 6.04348 8.82736 5.5763 8.82736 5.00001C8.82736 4.42371 8.36018 3.95653 7.78388 3.95653Z" fill="#C85A27"/>
<path d="M5.62036 8.10494L5.62036 1.89505C5.62036 1.30467 5.14177 0.82608 4.5514 0.82608C3.96102 0.82608 3.48243 1.30467 3.48243 1.89505L3.48243 8.10494C3.48243 8.69531 3.96102 9.17391 4.5514 9.17391C5.14177 9.17391 5.62036 8.69531 5.62036 8.10494Z" fill="#C85A27"/>
</svg>