<svg width="28" height="28" viewBox="0 0 28 28" fill="none" xmlns="http://www.w3.org/2000/svg">
<path d="M24.8281 21.8625C24.2386 20.4662 23.3831 19.1978 22.3094 18.1281C21.2388 17.0553 19.9707 16.2 18.575 15.6094C18.5625 15.6031 18.55 15.6 18.5375 15.5938C20.4844 14.1875 21.75 11.8969 21.75 9.3125C21.75 5.03125 18.2812 1.5625 14 1.5625C9.71874 1.5625 6.24999 5.03125 6.24999 9.3125C6.24999 11.8969 7.51561 14.1875 9.46249 15.5969C9.44999 15.6031 9.43749 15.6063 9.42499 15.6125C8.02499 16.2031 6.76874 17.05 5.69061 18.1313C4.61783 19.2018 3.7625 20.4699 3.17186 21.8656C2.59162 23.232 2.27868 24.697 2.24999 26.1813C2.24915 26.2146 2.255 26.2478 2.26719 26.2788C2.27938 26.3099 2.29766 26.3382 2.32096 26.3621C2.34426 26.386 2.3721 26.4049 2.40285 26.4179C2.4336 26.4308 2.46662 26.4375 2.49999 26.4375H4.37499C4.51249 26.4375 4.62186 26.3281 4.62499 26.1938C4.68749 23.7813 5.65624 21.5219 7.36874 19.8094C9.14061 18.0375 11.4937 17.0625 14 17.0625C16.5062 17.0625 18.8594 18.0375 20.6312 19.8094C22.3437 21.5219 23.3125 23.7813 23.375 26.1938C23.3781 26.3313 23.4875 26.4375 23.625 26.4375H25.5C25.5333 26.4375 25.5664 26.4308 25.5971 26.4179C25.6279 26.4049 25.6557 26.386 25.679 26.3621C25.7023 26.3382 25.7206 26.3099 25.7328 26.2788C25.745 26.2478 25.7508 26.2146 25.75 26.1813C25.7187 24.6875 25.4094 23.2344 24.8281 21.8625ZM14 14.6875C12.5656 14.6875 11.2156 14.1281 10.2 13.1125C9.18436 12.0969 8.62499 10.7469 8.62499 9.3125C8.62499 7.87813 9.18436 6.52813 10.2 5.5125C11.2156 4.49688 12.5656 3.9375 14 3.9375C15.4344 3.9375 16.7844 4.49688 17.8 5.5125C18.8156 6.52813 19.375 7.87813 19.375 9.3125C19.375 10.7469 18.8156 12.0969 17.8 13.1125C16.7844 14.1281 15.4344 14.6875 14 14.6875Z" fill="black"/>
</svg>
