<svg width="18" height="16" viewBox="0 0 18 16" fill="none" xmlns="http://www.w3.org/2000/svg">
<path d="M18 0.25V7.85254C17.8828 7.55957 17.7275 7.29004 17.5342 7.04395C17.3408 6.79785 17.1211 6.58105 16.875 6.39355V1.375H1.125V11.5H10.125V12.625H0V0.25H18ZM14.625 7C14.9355 7 15.2256 7.05859 15.4951 7.17578C15.7646 7.29297 16.0049 7.4541 16.2158 7.65918C16.4268 7.86426 16.5879 8.10156 16.6992 8.37109C16.8105 8.64062 16.8691 8.93359 16.875 9.25V10.375H18V16H11.25V10.375H12.375V9.25C12.375 8.93945 12.4336 8.64941 12.5508 8.37988C12.668 8.11035 12.8291 7.87012 13.0342 7.65918C13.2393 7.44824 13.4766 7.28711 13.7461 7.17578C14.0156 7.06445 14.3086 7.00586 14.625 7ZM13.5 10.375H15.75V9.25C15.75 9.0918 15.7207 8.94531 15.6621 8.81055C15.6035 8.67578 15.5244 8.55859 15.4248 8.45898C15.3252 8.35938 15.2051 8.27734 15.0645 8.21289C14.9238 8.14844 14.7773 8.11914 14.625 8.125C14.4668 8.125 14.3203 8.1543 14.1855 8.21289C14.0508 8.27148 13.9336 8.35059 13.834 8.4502C13.7344 8.5498 13.6523 8.66992 13.5879 8.81055C13.5234 8.95117 13.4941 9.09766 13.5 9.25V10.375ZM16.875 11.5H12.375V14.875H16.875V11.5Z" fill="black"/>
</svg>