<svg width="30" height="30" viewBox="0 0 30 30" fill="none" xmlns="http://www.w3.org/2000/svg">
<path d="M13.5 19.5H16.5V22.5H13.5V19.5ZM13.5 7.5H16.5V16.5H13.5V7.5ZM15 0C6.705 0 0 6.75 0 15C0 18.9782 1.58035 22.7936 4.3934 25.6066C5.78628 26.9995 7.43986 28.1044 9.25975 28.8582C11.0796 29.612 13.0302 30 15 30C18.9782 30 22.7936 28.4196 25.6066 25.6066C28.4196 22.7936 30 18.9782 30 15C30 13.0302 29.612 11.0796 28.8582 9.25975C28.1044 7.43986 26.9995 5.78628 25.6066 4.3934C24.2137 3.00052 22.5601 1.89563 20.7403 1.14181C18.9204 0.387987 16.9698 0 15 0ZM15 27C11.8174 27 8.76515 25.7357 6.51472 23.4853C4.26428 21.2348 3 18.1826 3 15C3 11.8174 4.26428 8.76515 6.51472 6.51472C8.76515 4.26428 11.8174 3 15 3C18.1826 3 21.2348 4.26428 23.4853 6.51472C25.7357 8.76515 27 11.8174 27 15C27 18.1826 25.7357 21.2348 23.4853 23.4853C21.2348 25.7357 18.1826 27 15 27Z" fill="#F9AF5E"/>
</svg>